# AST/ASF file generated using VICON BodyLanguage
# -----------------------------------------------
:version 1.10
:name VICON
:units
  mass 1.0
  length 0.45
  angle deg
:documentation
   .ast/.asf automatically generated from VICON data using
   VICON BodyBuilder and BodyLanguage model FoxedUp or BRILLIANT.MOD
:root
   order TX TY TZ RX RY RZ
   axis XYZ
   position 0 0 0  
   orientation 0 0 0 
:bonedata
  begin
     id 1 
     name lhipjoint
     direction 0.561001 -0.76473 0.316963 
     length 2.4722 
     axis 0 0 0  XYZ
  end
  begin
     id 2 
     name lfemur
     direction 0.34202 -0.939693 0  
     length 7.59403  
     axis 0 0 20  XYZ
    dof rx ry rz
    limits (-160.0 20.0)
           (-70.0 70.0)
           (-60.0 70.0)
  end
  begin
     id 3 
     name ltibia
     direction 0.34202 -0.939693 0   
     length 7.89655   
     axis 0 0 20   XYZ
    dof rx
    limits (-10.0 170.0)
  end
  begin
     id 4 
     name lfoot
     direction 0.061296 -0.168409 0.98381   
     length 2.73287   
     axis -90 7.62852e-016 20   XYZ
    dof rx rz
    limits (-45.0 90.0)
           (-70.0 20.0)
  end
  begin
     id 5 
     name ltoes
     direction 1.53547e-011 -4.21984e-011 1   
     length 1.37057   
     axis -90 7.62852e-016 20   XYZ
    dof rx
    limits (-90.0 20.0)
  end
  begin
     id 6 
     name rhipjoint
     direction -0.559611 -0.765599 0.317323   
     length 2.46939  
     axis 0 0 0  XYZ 
  end
  begin
     id 7 
     name rfemur
     direction -0.34202 -0.939693 0   
     length 7.53712   
     axis 0 0 -20   XYZ
    dof rx ry rz
    limits (-160.0 20.0)
           (-70.0 70.0)
           (-70.0 60.0)
  end
  begin
     id 8 
     name rtibia
     direction -0.34202 -0.939693 0   
     length 8.12549   
     axis 0 0 -20   XYZ
    dof rx
    limits (-10.0 170.0)
 end
 begin
     id 9 
     name rfoot
     direction -0.066984 -0.184037 0.980634   
     length 2.67541  
     axis -90 -7.62852e-016 -20   XYZ
    dof rx rz
    limits (-45.0 90.0)
           (-20.0 70.0)
  end
  begin
     id 10 
     name rtoes
     direction -1.53549e-011 -4.21786e-011 1   
     length 1.34085   
     axis -90 -7.62852e-016 -20   XYZ
    dof rx
    limits (-90.0 20.0)
  end
  begin
     id 11 
     name lowerback
     direction -0.0522728 0.992594 -0.109658   
     length 2.05633   
     axis 0 0 0   XYZ
    dof rx ry rz
    limits (-20.0 45.0)
           (-30.0 30.0)
           (-30.0 30.0)
  end
  begin
     id 12 
     name upperback
     direction 0.00589338 0.999977 0.00335704   
     length 2.05845   
     axis 0 0 0   XYZ
    dof rx ry rz
    limits (-20.0 45.0)
           (-30.0 30.0)
           (-30.0 30.0)
  end
  begin
     id 13 
     name thorax
     direction 0.0292928 0.998059 0.0549487   
     length 2.09281   
     axis 0 0 0   XYZ
    dof rx ry rz
    limits (-20.0 45.0)
           (-30.0 30.0)
           (-30.0 30.0)
  end
  begin
     id 14 
     name lowerneck
     direction 0.0356368 0.980775 0.191858   
     length 1.84767   
     axis 0 0 0   XYZ
    dof rx ry rz
    limits (-20.0 45.0)
           (-30.0 30.0)
           (-30.0 30.0)
  end
  begin
     id 15 
     name upperneck
     direction -0.0227605 0.98931 -0.14404   
     length 1.89582   
     axis 0 0 0   XYZ
    dof rx ry rz
    limits (-20.0 45.0)
           (-30.0 30.0)
           (-30.0 30.0)
  end
  begin
     id 16
     name head
     direction -0.00932985 0.997511 -0.0698904  
     length 1.90213  
     axis 0 0 0   XYZ
    dof rx ry rz
    limits (-20.0 45.0)
           (-30.0 30.0)
           (-30.0 30.0)
  end
  begin
     id 17 
     name lclavicle
     direction 0.873442 0.479511 0.0846686  
     length 3.41193  
     axis 0 0 0   XYZ
    dof ry rz
    limits (-20.0 10.0)
           (0.0 20.0)
  end
  begin
     id 18 
     name lhumerus
     direction 1 -4.4897e-011 -5.62117e-018   
     length 5.59864   
     axis 180 -30 -90   XYZ
    dof rx ry rz
    limits (-60.0 90.0)
           (-90.0 90.0)
           (-90.0 90.0)
  end
  begin
     id 19
     name lradius
     direction 1 -4.48966e-011 -6.26295e-027   
     length 3.59542   
     axis 180 -30 -90   XYZ
    dof rx
    limits (-10.0 170.0)
  end
  begin
     id 20
     name lwrist
     direction 1 -4.48947e-011 -1.74096e-026   
     length 1.79771   
     axis 1.04567e-014 90 90   XYZ
    dof ry
    limits (-180.0 0.0)
 end
  begin
     id 21 
     name lhand
     direction 1 -4.49085e-011 -3.48469e-026   
     length 0.572014   
     axis 2.22196e-014 90 90   XYZ
    dof rx rz
    limits (-90.0 90.0)
           (-45.0 45.0)
  end
  begin
     id 22 
     name lfingers
     direction 1 -4.48884e-011 -6.96135e-026   
     length 0.461173   
     axis 4.44383e-014 90 90   XYZ
    dof rx
    limits (0.0 90.0)
  end
  begin
     id 23
     name lthumb
     direction 0.707107 -6.34976e-011 0.707107   
     length 0.662154   
     axis -90 45 -5.4397e-014   XYZ
    dof rx rz
    limits (-45.0 45.0)
           (-45.0 45.0)
  end
  begin
     id 24 
     name rclavicle
     direction -0.890242 0.443271 0.104786   
     length 3.46753  
     axis 0 0 0   XYZ 
    dof ry rz
    limits (-10.0 20.0)
           (-20.0 0.0)
  end
  begin
     id 25 
     name rhumerus
     direction -1 -4.48963e-011 -5.41723e-018  
     length 5.8094   
     axis 180 30 90   XYZ
    dof rx ry rz
    limits (-90.0 60.0)
           (-90.0 90.0)
           (-90.0 90.0)
  end
  begin
     id 26 
     name rradius
     direction -1 -4.48958e-011 -6.51059e-027   
     length 3.66953   
     axis 180 30 90   XYZ
    dof rx
    limits (-10.0 170.0)
  end
  begin
     id 27 
     name rwrist
     direction -1 -4.48975e-011 -1.74124e-026   
     length 1.83476   
     axis 1.04567e-014 -90 -90   XYZ
    dof ry
    limits (-180.0 0.0)
  end
  begin
     id 28
     name rhand
     direction -1 -4.49013e-011 -3.48326e-026   
     length 0.57843   
     axis 2.22196e-014 -90 -90   XYZ
    dof rx rz
    limits (-90.0 90.0)
           (-45.0 45.0)
  end
  begin
     id 29
     name rfingers
     direction -1 -4.49023e-011 -6.9669e-026   
     length 0.466345   
     axis 4.44383e-014 -90 -90   XYZ
    dof rx
    limits (0.0 90.0)
  end
  begin
     id 30
     name rthumb
     direction -0.707107 -6.34926e-011 0.707107   
     length 0.669581   
     axis -90 -45 5.4397e-014   XYZ
    dof rx rz
    limits (-45.0 45.0)
           (-45.0 45.0)
  end
:hierarchy
  begin
    root lhipjoint rhipjoint lowerback
    lhipjoint lfemur
    lfemur ltibia
    ltibia lfoot
    lfoot ltoes
    rhipjoint rfemur
    rfemur rtibia
    rtibia rfoot
    rfoot rtoes
    lowerback upperback
    upperback thorax
    thorax lowerneck lclavicle rclavicle
    lowerneck upperneck
    upperneck head
    lclavicle lhumerus
    lhumerus lradius
    lradius lwrist
    lwrist lhand lthumb
    lhand lfingers
    rclavicle rhumerus
    rhumerus rradius
    rradius rwrist
    rwrist rhand rthumb
    rhand rfingers
  end

#!OML:ASF H:\SkateBoarding\Project 1\Capture day 1\Session 1\Skater.ASF
:FULLY-SPECIFIED
:DEGREES
247
root 4.49804 18.7827 56.1791 -20.1181 75.3052 -21.9274
lowerback 12.4164 -2.41715 -7.13728
upperback 1.48779 -4.20837 -2.30472
thorax -5.04651 -1.90993 2.26492
lowerneck -14.2403 -8.56811 -1.73529
upperneck 41.7498 -13.3636 4.21904
head 18.6562 -4.67675 -0.196529
rclavicle 5.76476e-014 -9.54166e-015
rhumerus -50.38 0.0292188 -86.3664
rradius 46.5988
rwrist -13.9628
rhand -23.8841 -4.20805
rfingers 7.12502
rthumb 2.5893 -34.1721
lclavicle 5.76476e-014 -9.54166e-015
lhumerus -32.5866 -14.1391 85.1653
lradius 50.0263
lwrist 32.0663
lhand -27.9159 18.0982
lfingers 7.12502
lthumb -1.30472 48.0739
rfemur -23.5777 9.51529 19.1443
rtibia 53.107
rfoot -24.3783 13.5796
rtoes -0.553202
lfemur -14.6988 -3.9271 -8.52458
ltibia 56.0891
lfoot -45.2826 4.56213
ltoes -23.1033
248
root 4.50983 18.7719 56.5362 -19.5808 75.2562 -21.418
lowerback 12.3835 -2.46328 -7.23493
upperback 1.42792 -4.28413 -2.29236
thorax -5.07719 -1.94326 2.34327
lowerneck -14.1807 -8.54987 -1.79233
upperneck 41.6512 -13.3019 4.18994
head 18.5769 -4.67558 -0.185333
rclavicle 2.62396e-014 1.11319e-014
rhumerus -50.3902 0.0863174 -86.192
rradius 46.5276
rwrist -14.0536
rhand -23.9117 -4.0117
rfingers 7.12502
rthumb 2.56264 -33.976
lclavicle 2.62396e-014 1.11319e-014
lhumerus -32.474 -14.2706 85.1812
lradius 50.2816
lwrist 32.1733
lhand -27.7792 18.0507
lfingers 7.12502
lthumb -1.17269 48.0272
rfemur -23.7003 9.58177 19.0755
rtibia 53.2162
rfoot -24.3093 13.8968
rtoes -0.391371
lfemur -14.6345 -3.85082 -8.55807
ltibia 55.969
lfoot -45.4265 4.70317
ltoes -23.3355
249
root 4.51656 18.7594 56.8955 -19.5152 75.2574 -21.4389
lowerback 12.3959 -2.55504 -7.17876
upperback 1.32559 -4.40889 -2.2979
thorax -5.18655 -2.00038 2.32924
lowerneck -14.0661 -8.53747 -1.81979
upperneck 41.5592 -13.2884 4.23333
head 18.4971 -4.67939 -0.152137
rclavicle 7.37491e-014 1.27222e-014
rhumerus -50.5799 -0.320595 -85.9014
rradius 46.7055
rwrist -13.6586
rhand -23.7747 -3.97704
rfingers 7.12502
rthumb 2.69493 -33.9398
lclavicle 7.37491e-014 1.27222e-014
lhumerus -32.2767 -14.4355 85.1501
lradius 50.4325
lwrist 32.2264
lhand -27.7234 17.8764
lfingers 7.12502
lthumb -1.11878 47.8532
rfemur -23.9669 9.50723 19.1628
rtibia 53.4218
rfoot -24.3542 13.8612
rtoes 0.424267
lfemur -14.7204 -3.87131 -8.46469
ltibia 55.9586
lfoot -45.5908 4.69932
ltoes -23.4312
250
root 4.52499 18.7456 57.2508 -18.9797 75.2922 -20.9059
lowerback 12.3896 -2.58339 -7.15612
upperback 1.30407 -4.44807 -2.38379
thorax -5.21127 -2.0189 2.23291
lowerneck -14.0435 -8.57688 -1.91044
upperneck 41.4883 -13.3753 4.36145
head 18.4797 -4.71575 -0.0948717
rclavicle -2.96189e-014 -3.02153e-014
rhumerus -50.5992 -0.469442 -85.7599
rradius 46.6143
rwrist -13.7377
rhand -24.0262 -3.77406
rfingers 7.12502
rthumb 2.45202 -33.7397
lclavicle -2.96189e-014 -3.02153e-014
lhumerus -32.0303 -14.8064 85.0708
lradius 50.6758
lwrist 32.3341
lhand -27.492 17.7176
lfingers 7.12502
lthumb -0.895272 47.6955
rfemur -24.182 9.39301 19.078
rtibia 53.6921
rfoot -24.3865 13.8632
rtoes 0.247263
lfemur -14.7609 -3.94553 -8.57214
ltibia 56.0374
lfoot -45.8037 4.58623
ltoes -23.0921
251
root 4.53063 18.7352 57.608 -18.4073 75.3812 -20.4433
lowerback 12.3205 -2.65257 -7.21034
upperback 1.24141 -4.5478 -2.43391
thorax -5.23093 -2.06519 2.22324
lowerneck -13.9928 -8.62565 -2.03332
upperneck 41.4095 -13.4806 4.52231
head 18.4593 -4.76155 -0.0197311
rclavicle 4.57205e-015 -2.38542e-014
rhumerus -50.6423 -0.56242 -85.6067
rradius 46.5514
rwrist -13.64
rhand -24.2479 -3.64413
rfingers 7.12502
rthumb 2.23792 -33.6121
lclavicle 4.57205e-015 -2.38542e-014
lhumerus -31.6936 -15.2698 85.0262
lradius 50.8136
lwrist 32.4302
lhand -27.2782 17.2638
lfingers 7.12502
lthumb -0.688741 47.2424
rfemur -24.5507 9.33862 18.9647
rtibia 53.9859
rfoot -24.3945 13.884
rtoes 0.0820311
lfemur -15.0593 -3.86914 -8.5956
ltibia 56.2115
lfoot -45.7559 4.60856
ltoes -23.2908
252
root 4.5382 18.725 57.9652 -17.7927 75.5031 -19.9005
lowerback 12.291 -2.67529 -7.16068
upperback 1.14861 -4.5824 -2.57631
thorax -5.32633 -2.07862 2.05312
lowerneck -13.8492 -8.69968 -2.00421
upperneck 41.4111 -13.6227 4.57496
head 18.4347 -4.81043 -0.0211297
rclavicle 7.49418e-014 5.08889e-014
rhumerus -50.8234 -0.831242 -85.4884
rradius 46.4347
rwrist -13.6473
rhand -24.5702 -3.43877
rfingers 7.12502
rthumb 1.92665 -33.4098
lclavicle 7.49418e-014 5.08889e-014
lhumerus -31.4164 -16.0027 84.9669
lradius 50.939
lwrist 32.6628
lhand -27.3223 16.9645
lfingers 7.12502
lthumb -0.731393 46.943
rfemur -24.874 9.25597 18.8186
rtibia 54.2748
rfoot -24.4471 13.7994
rtoes 0.0786117
lfemur -15.3405 -3.91315 -8.69593
ltibia 56.442
lfoot -45.7325 4.60701
ltoes -23.5163
253
root 4.54171 18.7147 58.3221 -17.5686 75.6056 -19.7516
lowerback 12.3147 -2.80198 -7.25259
upperback 1.15302 -4.7619 -2.53054
thorax -5.30842 -2.16496 2.17999
lowerneck -14.0528 -8.68666 -2.16891
upperneck 41.4094 -13.6134 4.67965
head 18.5204 -4.81305 0.043865
rclavicle 6.48038e-014 1.59028e-015
rhumerus -50.6825 -0.685852 -85.3049
rradius 46.2519
rwrist -13.4865
rhand -25.0175 -3.14837
rfingers 7.12502
rthumb 1.49467 -33.1229
lclavicle 6.48038e-014 1.59028e-015
lhumerus -30.8169 -16.1167 84.7913
lradius 50.9141
lwrist 32.281
lhand -26.4967 16.6601
lfingers 7.12502
lthumb 0.066003 46.6398
rfemur -25.1884 9.15607 18.8007
rtibia 54.5316
rfoot -24.453 13.7018
rtoes -1.93581
lfemur -15.7132 -3.90586 -8.66192
ltibia 56.778
lfoot -45.6128 4.55375
ltoes -23.5164
254
root 4.5415 18.7022 58.6788 -17.7995 75.7395 -20.0762
lowerback 12.3353 -2.91924 -7.19224
upperback 1.17336 -4.90715 -2.4756
thorax -5.28585 -2.23872 2.22667
lowerneck -14.2902 -8.70157 -2.26403
upperneck 41.3887 -13.6315 4.69644
head 18.5853 -4.82841 0.0495898
rclavicle -7.43455e-014 -3.18055e-015
rhumerus -50.5249 -0.6822 -85.0337
rradius 46.0243
rwrist -13.2066
rhand -25.4864 -2.6821
rfingers 7.12502
rthumb 1.04183 -32.6593
lclavicle -7.43455e-014 -3.18055e-015
lhumerus -30.1744 -16.4003 84.6786
lradius 51.0341
lwrist 32.3828
lhand -26.3922 17.0627
lfingers 7.12502
lthumb 0.166993 47.0424
rfemur -25.5076 9.12897 18.8639
rtibia 54.7548
rfoot -24.3909 13.7169
rtoes -0.175084
lfemur -16.1709 -3.90134 -8.48212
ltibia 57.1909
lfoot -45.4895 4.27384
ltoes -23.3067
255
root 4.54128 18.691 59.0345 -18.0997 75.8648 -20.4741
lowerback 12.3467 -3.05618 -7.17914
upperback 1.17512 -5.08432 -2.39188
thorax -5.26835 -2.32663 2.33421
lowerneck -14.4495 -8.66036 -2.2442
upperneck 41.3827 -13.5478 4.60485
head 18.6042 -4.80263 0.0117883
rclavicle -8.62725e-014 -2.22639e-014
rhumerus -50.428 -0.508054 -84.7629
rradius 45.8617
rwrist -13.0339
rhand -26.0064 -2.31522
rfingers 7.12502
rthumb 0.539569 -32.2943
lclavicle -8.62725e-014 -2.22639e-014
lhumerus -29.8348 -17.366 84.5688
lradius 51.3961
lwrist 32.8566
lhand -26.3122 16.4433
lfingers 7.12502
lthumb 0.244221 46.4229
rfemur -25.8313 9.04086 18.9442
rtibia 54.9565
rfoot -24.3952 13.5823
rtoes 0.210673
lfemur -16.6873 -3.84471 -8.29512
ltibia 57.664
lfoot -45.2777 4.28399
ltoes -23.4878
